<?xml version="1.0" encoding="UTF-8" standalone="no"?>
<svg version="1.1" xmlns="http://www.w3.org/2000/svg" xmlns:xlink="http://www.w3.org/1999/xlink" width="800px" height="273px" x="0" y="0" viewBox="0 0 800 273"><defs><circle cx="0" cy="0" r="1" id="c"/></defs><g><g><use transform="translate(364.6447, 171.8553) scale(15.0000)" xlink:href="#c" fill="#FFFFFFFF"/><use transform="translate(400.0000, 171.8553) scale(15.0000)" xlink:href="#c" fill="#FFFFFFFF"/><use transform="translate(435.3553, 171.8553) scale(15.0000)" xlink:href="#c" fill="#FFFFFFFF"/><use transform="translate(435.3553, 101.1447) scale(15.0000)" xlink:href="#c" fill="#FFFFFFFF"/><use transform="translate(400.0000, 101.1447) scale(15.0000)" xlink:href="#c" fill="#FFFFFFFF"/><use transform="translate(364.6447, 101.1447) scale(15.0000)" xlink:href="#c" fill="#FFFFFFFF"/><use transform="translate(329.2893, 207.2107) scale(15.0000)" xlink:href="#c" fill="#FFFFFFFF"/><use transform="translate(364.6447, 207.2107) scale(15.0000)" xlink:href="#c" fill="#FFFFFFFF"/><use transform="translate(400.0000, 207.2107) scale(15.0000)" xlink:href="#c" fill="#FFFFFFFF"/><use transform="translate(435.3553, 207.2107) scale(15.0000)" xlink:href="#c" fill="#FFFFFFFF"/><use transform="translate(470.7107, 207.2107) scale(15.0000)" xlink:href="#c" fill="#FFFFFFFF"/><use transform="translate(470.7107, 171.8553) scale(15.0000)" xlink:href="#c" fill="#FFFFFFFF"/><use transform="translate(470.7107, 136.5000) scale(15.0000)" xlink:href="#c" fill="#FFFFFFFF"/><use transform="translate(470.7107, 101.1447) scale(15.0000)" xlink:href="#c" fill="#FFFFFFFF"/><use transform="translate(470.7107, 65.7893) scale(15.0000)" xlink:href="#c" fill="#FFFFFFFF"/><use transform="translate(435.3553, 65.7893) scale(15.0000)" xlink:href="#c" fill="#FFFFFFFF"/><use transform="translate(400.0000, 65.7893) scale(15.0000)" xlink:href="#c" fill="#FFFFFFFF"/><use transform="translate(364.6447, 65.7893) scale(15.0000)" xlink:href="#c" fill="#FFFFFFFF"/><use transform="translate(329.2893, 65.7893) scale(15.0000)" xlink:href="#c" fill="#FFFFFFFF"/><use transform="translate(329.2893, 101.1447) scale(15.0000)" xlink:href="#c" fill="#FFFFFFFF"/><use transform="translate(329.2893, 171.8553) scale(15.0000)" xlink:href="#c" fill="#FFFFFFFF"/><use transform="translate(293.9340, 242.5660) scale(15.0000)" xlink:href="#c" fill="#FFFFFFFF"/><use transform="translate(329.2893, 242.5660) scale(15.0000)" xlink:href="#c" fill="#FFFFFFFF"/><use transform="translate(364.6447, 242.5660) scale(15.0000)" xlink:href="#c" fill="#FFFFFFFF"/><use transform="translate(400.0000, 242.5660) scale(15.0000)" xlink:href="#c" fill="#FFFFFFFF"/><use transform="translate(435.3553, 242.5660) scale(15.0000)" xlink:href="#c" fill="#FFFFFFFF"/><use transform="translate(470.7107, 242.5660) scale(15.0000)" xlink:href="#c" fill="#FFFFFFFF"/><use transform="translate(506.0660, 242.5660) scale(15.0000)" xlink:href="#c" fill="#FFFFFFFF"/><use transform="translate(506.0660, 207.2107) scale(15.0000)" xlink:href="#c" fill="#FFFFFFFF"/><use transform="translate(506.0660, 171.8553) scale(15.0000)" xlink:href="#c" fill="#FFFFFFFF"/><use transform="translate(506.0660, 136.5000) scale(15.0000)" xlink:href="#c" fill="#FFFFFFFF"/><use transform="translate(506.0660, 101.1447) scale(15.0000)" xlink:href="#c" fill="#FFFFFFFF"/><use transform="translate(506.0660, 65.7893) scale(15.0000)" xlink:href="#c" fill="#FFFFFFFF"/><use transform="translate(506.0660, 30.4340) scale(15.0000)" xlink:href="#c" fill="#FFFFFFFF"/><use transform="translate(470.7107, 30.4340) scale(15.0000)" xlink:href="#c" fill="#FFFFFFFF"/><use transform="translate(435.3553, 30.4340) scale(15.0000)" xlink:href="#c" fill="#FFFFFFFF"/><use transform="translate(400.0000, 30.4340) scale(15.0000)" xlink:href="#c" fill="#FFFFFFFF"/><use transform="translate(364.6447, 30.4340) scale(15.0000)" xlink:href="#c" fill="#FFFFFFFF"/><use transform="translate(329.2893, 30.4340) scale(15.0000)" xlink:href="#c" fill="#FFFFFFFF"/><use transform="translate(293.9340, 30.4340) scale(15.0000)" xlink:href="#c" fill="#FFFFFFFF"/><use transform="translate(293.9340, 65.7893) scale(15.0000)" xlink:href="#c" fill="#FFFFFFFF"/><use transform="translate(293.9340, 101.1447) scale(15.0000)" xlink:href="#c" fill="#FFFFFFFF"/><use transform="translate(293.9340, 171.8553) scale(15.0000)" xlink:href="#c" fill="#FFFFFFFF"/><use transform="translate(293.9340, 207.2107) scale(15.0000)" xlink:href="#c" fill="#FFFFFFFF"/><use transform="translate(541.4214, 242.5660) scale(15.0000)" xlink:href="#c" fill="#FFFFFFFF"/><use transform="translate(541.4214, 30.4340) scale(15.0000)" xlink:href="#c" fill="#FFFFFFFF"/><use transform="translate(258.5786, 30.4340) scale(15.0000)" xlink:href="#c" fill="#FFFFFFFF"/><use transform="translate(258.5786, 65.7893) scale(15.0000)" xlink:href="#c" fill="#FFFFFFFF"/><use transform="translate(258.5786, 101.1447) scale(15.0000)" xlink:href="#c" fill="#FFFFFFFF"/><use transform="translate(258.5786, 136.5000) scale(15.0000)" xlink:href="#c" fill="#FFFFFFFF"/><use transform="translate(258.5786, 171.8553) scale(15.0000)" xlink:href="#c" fill="#FFFFFFFF"/><use transform="translate(258.5786, 207.2107) scale(15.0000)" xlink:href="#c" fill="#FFFFFFFF"/><use transform="translate(258.5786, 242.5660) scale(15.0000)" xlink:href="#c" fill="#FFFFFFFF"/><use transform="translate(576.7767, 242.5660) scale(15.0000)" xlink:href="#c" fill="#FFFFFFFF"/><use transform="translate(576.7767, 207.2107) scale(15.0000)" xlink:href="#c" fill="#FFFFFFFF"/><use transform="translate(576.7767, 65.7893) scale(15.0000)" xlink:href="#c" fill="#FFFFFFFF"/><use transform="translate(576.7767, 30.4340) scale(15.0000)" xlink:href="#c" fill="#FFFFFFFF"/><use transform="translate(223.2233, 30.4340) scale(15.0000)" xlink:href="#c" fill="#FFFFFFFF"/><use transform="translate(223.2233, 65.7893) scale(15.0000)" xlink:href="#c" fill="#FFFFFFFF"/><use transform="translate(223.2233, 101.1447) scale(15.0000)" xlink:href="#c" fill="#FFFFFFFF"/><use transform="translate(223.2233, 136.5000) scale(15.0000)" xlink:href="#c" fill="#FFFFFFFF"/><use transform="translate(223.2233, 171.8553) scale(15.0000)" xlink:href="#c" fill="#FFFFFFFF"/><use transform="translate(223.2233, 207.2107) scale(15.0000)" xlink:href="#c" fill="#FFFFFFFF"/><use transform="translate(223.2233, 242.5660) scale(15.0000)" xlink:href="#c" fill="#FFFFFFFF"/><use transform="translate(612.1320, 242.5660) scale(15.0000)" xlink:href="#c" fill="#FFFFFFFF"/><use transform="translate(612.1320, 30.4340) scale(15.0000)" xlink:href="#c" fill="#FFFFFFFF"/><use transform="translate(187.8680, 30.4340) scale(15.0000)" xlink:href="#c" fill="#FFFFFFFF"/><use transform="translate(187.8680, 65.7893) scale(15.0000)" xlink:href="#c" fill="#FFFFFFFF"/><use transform="translate(187.8680, 207.2107) scale(15.0000)" xlink:href="#c" fill="#FFFFFFFF"/><use transform="translate(187.8680, 242.5660) scale(15.0000)" xlink:href="#c" fill="#FFFFFFFF"/><use transform="translate(647.4874, 242.5660) scale(15.0000)" xlink:href="#c" fill="#FFFFFFFF"/><use transform="translate(647.4874, 30.4340) scale(15.0000)" xlink:href="#c" fill="#FFFFFFFF"/><use transform="translate(152.5126, 30.4340) scale(15.0000)" xlink:href="#c" fill="#FFFFFFFF"/><use transform="translate(152.5126, 65.7893) scale(15.0000)" xlink:href="#c" fill="#FFFFFFFF"/><use transform="translate(152.5126, 207.2107) scale(15.0000)" xlink:href="#c" fill="#FFFFFFFF"/><use transform="translate(152.5126, 242.5660) scale(15.0000)" xlink:href="#c" fill="#FFFFFFFF"/><use transform="translate(682.8427, 242.5660) scale(15.0000)" xlink:href="#c" fill="#FFFFFFFF"/><use transform="translate(682.8427, 207.2107) scale(15.0000)" xlink:href="#c" fill="#FFFFFFFF"/><use transform="translate(682.8427, 30.4340) scale(15.0000)" xlink:href="#c" fill="#FFFFFFFF"/><use transform="translate(117.1573, 30.4340) scale(15.0000)" xlink:href="#c" fill="#FFFFFFFF"/><use transform="translate(117.1573, 65.7893) scale(15.0000)" xlink:href="#c" fill="#FFFFFFFF"/><use transform="translate(117.1573, 207.2107) scale(15.0000)" xlink:href="#c" fill="#FFFFFFFF"/><use transform="translate(117.1573, 242.5660) scale(15.0000)" xlink:href="#c" fill="#FFFFFFFF"/><use transform="translate(718.1981, 242.5660) scale(15.0000)" xlink:href="#c" fill="#FFFFFFFF"/><use transform="translate(718.1981, 30.4340) scale(15.0000)" xlink:href="#c" fill="#FFFFFFFF"/><use transform="translate(81.8019, 30.4340) scale(15.0000)" xlink:href="#c" fill="#FFFFFFFF"/><use transform="translate(81.8019, 65.7893) scale(15.0000)" xlink:href="#c" fill="#FFFFFFFF"/><use transform="translate(81.8019, 101.1447) scale(15.0000)" xlink:href="#c" fill="#FFFFFFFF"/><use transform="translate(81.8019, 171.8553) scale(15.0000)" xlink:href="#c" fill="#FFFFFFFF"/><use transform="translate(81.8019, 207.2107) scale(15.0000)" xlink:href="#c" fill="#FFFFFFFF"/><use transform="translate(81.8019, 242.5660) scale(15.0000)" xlink:href="#c" fill="#FFFFFFFF"/><use transform="translate(753.5534, 242.5660) scale(15.0000)" xlink:href="#c" fill="#FFFFFFFF"/><use transform="translate(753.5534, 207.2107) scale(15.0000)" xlink:href="#c" fill="#FFFFFFFF"/><use transform="translate(753.5534, 171.8553) scale(15.0000)" xlink:href="#c" fill="#FFFFFFFF"/><use transform="translate(753.5534, 136.5000) scale(15.0000)" xlink:href="#c" fill="#FFFFFFFF"/><use transform="translate(753.5534, 101.1447) scale(15.0000)" xlink:href="#c" fill="#FFFFFFFF"/><use transform="translate(753.5534, 65.7893) scale(15.0000)" xlink:href="#c" fill="#FFFFFFFF"/><use transform="translate(753.5534, 30.4340) scale(15.0000)" xlink:href="#c" fill="#FFFFFFFF"/><use transform="translate(46.4466, 30.4340) scale(15.0000)" xlink:href="#c" fill="#FFFFFFFF"/><use transform="translate(46.4466, 65.7893) scale(15.0000)" xlink:href="#c" fill="#FFFFFFFF"/><use transform="translate(46.4466, 101.1447) scale(15.0000)" xlink:href="#c" fill="#FFFFFFFF"/><use transform="translate(46.4466, 136.5000) scale(15.0000)" xlink:href="#c" fill="#FFFFFFFF"/><use transform="translate(46.4466, 171.8553) scale(15.0000)" xlink:href="#c" fill="#FFFFFFFF"/><use transform="translate(46.4466, 207.2107) scale(15.0000)" xlink:href="#c" fill="#FFFFFFFF"/><use transform="translate(46.4466, 242.5660) scale(15.0000)" xlink:href="#c" fill="#FFFFFFFF"/></g></g></svg>