<?xml version="1.0" encoding="utf-8"?>
<!-- Generator: Adobe Illustrator 14.0.0, SVG Export Plug-In . SVG Version: 6.00 Build 43363)  -->
<!DOCTYPE svg PUBLIC "-//W3C//DTD SVG 1.1//EN" "http://www.w3.org/Graphics/SVG/1.1/DTD/svg11.dtd">
<svg version="1.1" id="Layer_1" xmlns="http://www.w3.org/2000/svg" xmlns:xlink="http://www.w3.org/1999/xlink" x="0px" y="0px"
	 width="224.365px" height="75px" viewBox="0 0 224.365 75" enable-background="new 0 0 224.365 75" xml:space="preserve">
<path fill="#131324" d="M214.575,54.367c-2.1,0-3.804-1.708-3.804-3.803V23.377C210.771,10.49,200.282,0,187.39,0
	c-12.887,0-23.376,10.49-23.376,23.377v28.244c0,2.095-1.701,3.801-3.804,3.801c-2.098,0-3.809-1.706-3.809-3.801V23.377
	C156.401,10.49,145.917,0,133.027,0c-12.892,0-23.381,10.49-23.381,23.377v15.452c0,9.591-7.803,17.288-17.39,17.818l-27.173,0.211
	c0,0-22.987,0.265-26.46-0.078c-3.474-0.34-4.791-1.02-6.828-2.005c-2.039-0.984-3.771-2.36-5.197-4.127
	c-1.426-1.767-2.515-3.82-3.259-6.166c-0.75-2.343-1.122-4.842-1.122-7.492c0-2.647,0.371-5.144,1.122-7.487
	c0.745-2.345,1.833-4.398,3.259-6.168c1.427-1.765,3.158-3.141,5.197-4.125c2.037-0.985,4.313-1.479,6.828-1.479
	c2.513,0,4.79,0.495,6.827,1.479c2.038,0.984,3.771,2.36,5.196,4.125c1.428,1.77,2.515,3.823,3.263,6.168
	c0.748,2.343,1.122,4.84,1.122,7.487l0,0c0,0,0,0,0,0.001c0,6.135,4.974,11.107,11.108,11.107c6.135,0,11.109-4.972,11.109-11.107
	c0-0.012-0.002-0.024-0.002-0.036c-0.004-5.284-0.956-10.181-2.853-14.689c-1.903-4.517-4.571-8.439-8-11.769
	c-3.43-3.328-7.508-5.912-12.229-7.746C49.44,0.917,44.262,0,38.623,0c-5.641,0-10.819,0.917-15.54,2.751
	c-4.723,1.834-8.8,4.417-12.229,7.746c-3.432,3.33-6.099,7.252-8,11.769C0.952,26.784,0,31.691,0,36.99
	c0,5.302,0.952,10.191,2.854,14.677c1.901,4.482,4.568,8.405,8,11.769c3.429,3.363,7.506,5.962,12.229,7.798
	c4.721,1.835,9.899,2.749,15.54,2.749c0.661,0,1.313-0.015,1.962-0.038h51.672c20.378,0,36.967-16.593,36.967-36.971V23.377
	c0-2.097,1.706-3.804,3.804-3.804s3.801,1.707,3.801,3.804v28.244c0,12.891,10.49,23.379,23.382,23.379
	c12.887,0,23.374-10.488,23.374-23.379V23.377c0-2.097,1.708-3.804,3.807-3.804c2.1,0,3.809,1.707,3.809,3.804v27.187
	c0,12.891,10.491,23.38,23.376,23.38c5.403,0,9.79-4.389,9.79-9.792C224.365,58.75,219.978,54.367,214.575,54.367z"/>
</svg>
