<?xml version="1.0" encoding="utf-8"?>
<!-- Generator: Adobe Illustrator 14.0.0, SVG Export Plug-In  -->
<!DOCTYPE svg PUBLIC "-//W3C//DTD SVG 1.0//EN" "http://www.w3.org/TR/2001/REC-SVG-20010904/DTD/svg10.dtd" [
	<!ENTITY ns_flows "http://ns.adobe.com/Flows/1.0/">
]>
<svg version="1.0"
	 xmlns="http://www.w3.org/2000/svg" xmlns:xlink="http://www.w3.org/1999/xlink" xmlns:a="http://ns.adobe.com/AdobeSVGViewerExtensions/3.0/"
	 x="0px" y="0px" width="79px" height="25px" viewBox="102.5 140 79 25" enable-background="new 102.5 140 79 25"
	 xml:space="preserve">
<defs>
</defs>
<text transform="matrix(1 0 0 1 145.3008 142.8506)" display="none" font-family="'MyriadPro-Bold'" font-size="12">o-m</text>
<text transform="matrix(1 0 0 1 144.1758 156.2256)" display="none" font-family="'MyriadPro-Bold'" font-size="12">O-M</text>
<circle display="none" fill="#1E1A4D" cx="173.5" cy="131" r="13"/>
<path display="none" d="M159.218,112.788c-4.217,0.326-7.299,1.703-9.246,4.137c-1.945,2.432-2.919,5.693-2.919,9.78
	c0,9.798,4.38,14.695,13.138,14.695c1.753,0,3.456-0.209,5.11-0.631c1.655-0.422,3.115-1.12,4.38-2.094
	c1.265-0.973,2.287-2.27,3.064-3.893c0.78-1.62,1.171-3.633,1.171-6.033c0-5.646-1.138-9.796-3.408-12.458
	C168.236,113.631,164.474,112.464,159.218,112.788z"/>
<circle display="none" cx="133.767" cy="157.024" r="10"/>
<path display="none" fill="none" stroke="#FFFFFF" stroke-width="2" stroke-linecap="round" stroke-linejoin="round" d="
	M119,163.482h12.849v-2.264c-2.37-1.059-3.433-3.84-2.373-6.211c1.06-2.369,3.841-3.431,6.209-2.371
	c2.37,1.059,3.433,3.84,2.373,6.21c-0.472,1.055-1.316,1.899-2.373,2.372v2.264h12.849"/>
<rect x="94" y="70" display="none" fill="#131324" width="1100" height="75"/>
<rect x="121.993" display="none" width="441.014" height="141"/>
<path display="none" fill="none" stroke="#000000" stroke-width="45" stroke-linecap="round" d="M85,194.9
	c-34.518,0-62.5-27.982-62.5-62.5S50.482,69.9,85,69.9s62.5,27.982,62.5,62.5"/>
<path display="none" fill="none" stroke="#000000" stroke-width="45" stroke-linecap="round" d="M22.5,132.4
	c0-34.518,27.982-62.5,62.5-62.5"/>
<path display="none" fill="none" stroke="#000000" stroke-width="45" d="M85,195h125h-3.396c34.518,0,62.5-27.982,62.5-62.5l0,0"/>
<path display="none" d="M125.079,152.044c0,1.641-0.294,3.168-0.882,4.583s-1.388,2.639-2.399,3.671s-2.198,1.846-3.558,2.44
	s-2.82,0.892-4.378,0.892c-1.545,0-2.998-0.297-4.358-0.892s-2.55-1.408-3.568-2.44s-1.822-2.256-2.41-3.671
	s-0.882-2.943-0.882-4.583c0-1.668,0.294-3.213,0.882-4.635s1.391-2.649,2.41-3.681s2.208-1.842,3.568-2.43s2.813-0.882,4.358-0.882
	c1.559,0,3.018,0.277,4.378,0.831s2.546,1.34,3.558,2.358s1.812,2.242,2.399,3.671S125.079,150.294,125.079,152.044z
	 M119.439,152.044c0-0.902-0.147-1.719-0.441-2.451s-0.694-1.36-1.2-1.887s-1.097-0.93-1.774-1.21s-1.398-0.42-2.164-0.42
	s-1.487,0.14-2.164,0.42s-1.265,0.684-1.764,1.21s-0.892,1.155-1.179,1.887s-0.431,1.548-0.431,2.451
	c0,0.848,0.144,1.634,0.431,2.358s0.68,1.354,1.179,1.887s1.087,0.954,1.764,1.261s1.398,0.461,2.164,0.461s1.487-0.144,2.164-0.431
	s1.268-0.69,1.774-1.21s0.906-1.148,1.2-1.887S119.439,152.933,119.439,152.044z"/>
<path display="none" d="M128.738,155.081c-0.234,0-0.441-0.043-0.621-0.129s-0.27-0.23-0.27-0.434s0.125-0.543,0.375-1.02
	s0.563-1.004,0.938-1.582s0.742-1.109,1.102-1.594c0.375-0.5,0.805-0.75,1.289-0.75h9.117c0.641,0,0.961,0.234,0.961,0.703
	c0,0.156-0.063,0.398-0.188,0.727c-0.25,0.516-0.5,1.004-0.75,1.465s-0.508,0.879-0.773,1.254c-0.297,0.391-0.586,0.715-0.867,0.973
	s-0.555,0.387-0.82,0.387H128.738z"/>
<path display="none" d="M144.395,163.221v-3.363l2.994-0.615v-14.212l-3.22-0.615v-3.384h8.367l0.246,2.912
	c0.725-1.053,1.627-1.87,2.707-2.451s2.331-0.872,3.753-0.872c1.436,0,2.666,0.321,3.691,0.964s1.798,1.606,2.317,2.892
	c0.684-1.203,1.579-2.146,2.687-2.83s2.399-1.025,3.876-1.025c2.215,0,3.958,0.752,5.229,2.256s1.907,3.787,1.907,6.85v9.516
	l2.994,0.615v3.363h-11.32v-3.363l2.748-0.615v-9.536c0-1.764-0.291-2.991-0.872-3.681s-1.438-1.036-2.573-1.036
	c-1.025,0-1.88,0.314-2.563,0.943s-1.155,1.436-1.415,2.42v10.89l2.604,0.615v3.363h-10.767v-3.363l2.604-0.615v-9.536
	c0-1.695-0.294-2.905-0.882-3.63s-1.449-1.087-2.584-1.087c-0.93,0-1.723,0.188-2.379,0.564s-1.189,0.913-1.6,1.61v12.079
	l2.748,0.615v3.363H144.395z"/>
<path d="M126.562,152.545c0,1.755-0.314,3.389-0.943,4.903c-0.629,1.514-1.485,2.823-2.567,3.927
	c-1.082,1.105-2.351,1.975-3.806,2.611c-1.455,0.636-3.017,0.955-4.684,0.955c-1.653,0-3.207-0.318-4.662-0.955
	c-1.455-0.636-2.728-1.506-3.817-2.611c-1.09-1.104-1.949-2.413-2.578-3.927c-0.628-1.514-0.943-3.147-0.943-4.903
	c0-1.784,0.314-3.437,0.943-4.958c0.629-1.521,1.488-2.833,2.578-3.938c1.089-1.104,2.362-1.971,3.817-2.6
	c1.456-0.629,3.009-0.943,4.662-0.943c1.667,0,3.229,0.296,4.684,0.889s2.724,1.434,3.806,2.523c1.083,1.09,1.938,2.398,2.567,3.927
	C126.248,148.973,126.562,150.673,126.562,152.545z M120.529,152.545c0-0.965-0.157-1.839-0.471-2.622
	c-0.314-0.783-0.742-1.455-1.284-2.018c-0.541-0.563-1.174-0.995-1.897-1.295c-0.724-0.299-1.496-0.449-2.315-0.449
	s-1.591,0.15-2.314,0.449c-0.724,0.3-1.354,0.731-1.887,1.295c-0.534,0.563-0.955,1.235-1.262,2.018
	c-0.307,0.782-0.46,1.657-0.46,2.622c0,0.907,0.153,1.748,0.46,2.523c0.307,0.775,0.728,1.448,1.262,2.018
	c0.533,0.57,1.163,1.02,1.887,1.35c0.723,0.329,1.495,0.493,2.314,0.493s1.591-0.154,2.315-0.461
	c0.723-0.307,1.356-0.738,1.897-1.294c0.542-0.556,0.969-1.229,1.284-2.018C120.372,154.366,120.529,153.496,120.529,152.545z"/>
<path d="M129.837,155.394c-0.234,0-0.441-0.043-0.621-0.129s-0.27-0.23-0.27-0.434s0.125-0.543,0.375-1.02s0.563-1.004,0.938-1.582
	s0.742-1.109,1.102-1.594c0.375-0.5,0.805-0.75,1.289-0.75h9.117c0.641,0,0.961,0.234,0.961,0.703c0,0.156-0.063,0.398-0.188,0.727
	c-0.25,0.516-0.5,1.004-0.75,1.465s-0.508,0.879-0.773,1.254c-0.297,0.391-0.586,0.715-0.867,0.973s-0.555,0.387-0.82,0.387H129.837
	z"/>
<path d="M143.395,163.221v-3.363l2.994-0.615v-14.212l-3.22-0.615v-3.384h8.367l0.246,2.912c0.725-1.053,1.627-1.87,2.707-2.451
	s2.331-0.872,3.753-0.872c1.436,0,2.666,0.321,3.691,0.964s1.798,1.606,2.317,2.892c0.684-1.203,1.579-2.146,2.687-2.83
	s2.399-1.025,3.876-1.025c2.215,0,3.958,0.752,5.229,2.256s1.907,3.787,1.907,6.85v9.516l2.994,0.615v3.363h-11.32v-3.363
	l2.748-0.615v-9.536c0-1.764-0.291-2.991-0.872-3.681s-1.438-1.036-2.573-1.036c-1.025,0-1.88,0.314-2.563,0.943
	s-1.155,1.436-1.415,2.42v10.89l2.604,0.615v3.363h-10.767v-3.363l2.604-0.615v-9.536c0-1.695-0.294-2.905-0.882-3.63
	s-1.449-1.087-2.584-1.087c-0.93,0-1.723,0.188-2.379,0.564s-1.189,0.913-1.6,1.61v12.079l2.748,0.615v3.363H143.395z"/>
</svg>
