<svg xmlns="http://www.w3.org/2000/svg" xml:space="preserve" width="85" height="26">
  <path fill="#191936" d="M26 13a13 13 0 1 1-26 0 13 13 0 0 1 26 0zm-13-2a2 2 0 1 0 0 4 2 2 0 0 0 0-4zm30 14c3.23 0 6.16-1.28 8.31-3.36H34.69A11.95 11.95 0 0 0 43 25zm-10.69-6.56H53.7c.6-1.18 1-2.47 1.2-3.84H31.11c.18 1.37.6 2.66 1.2 3.84zm-1.19-7.04h23.76a11.9 11.9 0 0 0-1.2-3.84H32.32a11.9 11.9 0 0 0-1.2 3.84zm3.57-7.04H51.3a11.95 11.95 0 0 0-16.62 0zM59 1h7.91v24H59zm9.04 0h7.91v24h-7.91zm9.05 0H85v24h-7.91z"/>
</svg>
